<mxfile host="app.diagrams.net" modified="2021-05-27T14:54:59.179Z" agent="5.0 (Windows NT 10.0; WOW64) AppleWebKit/537.36 (KHTML, like Gecko) Chrome/86.0.4240.198 Safari/537.36" etag="AAPGGKXrIIwHHUcwDbT1" version="14.7.2" type="github">
  <diagram id="g2mdyH2-LWZBZ8d6Yd1H" name="Page-1">
    <mxGraphModel dx="1036" dy="575" grid="1" gridSize="10" guides="1" tooltips="1" connect="1" arrows="1" fold="1" page="1" pageScale="1" pageWidth="827" pageHeight="1169" math="0" shadow="0">
      <root>
        <mxCell id="0" />
        <mxCell id="1" parent="0" />
        <mxCell id="_zqlpKHExtMpAy_HHPnF-9" style="edgeStyle=orthogonalEdgeStyle;rounded=0;orthogonalLoop=1;jettySize=auto;html=1;entryX=1;entryY=0.5;entryDx=0;entryDy=0;" parent="1" source="_zqlpKHExtMpAy_HHPnF-2" target="_zqlpKHExtMpAy_HHPnF-8" edge="1">
          <mxGeometry relative="1" as="geometry">
            <Array as="points">
              <mxPoint x="280" y="145" />
              <mxPoint x="280" y="260" />
            </Array>
          </mxGeometry>
        </mxCell>
        <mxCell id="_zqlpKHExtMpAy_HHPnF-2" value="明文：1234" style="rounded=1;whiteSpace=wrap;html=1;" parent="1" vertex="1">
          <mxGeometry x="140" y="122.5" width="120" height="45" as="geometry" />
        </mxCell>
        <mxCell id="_zqlpKHExtMpAy_HHPnF-5" value="密匙A" style="rounded=0;whiteSpace=wrap;html=1;" parent="1" vertex="1">
          <mxGeometry x="40" y="130" width="60" height="30" as="geometry" />
        </mxCell>
        <mxCell id="_zqlpKHExtMpAy_HHPnF-7" value="&lt;font style=&quot;font-size: 19px&quot; color=&quot;#ff3333&quot;&gt;+&lt;/font&gt;" style="text;html=1;strokeColor=none;fillColor=none;align=center;verticalAlign=middle;whiteSpace=wrap;rounded=0;" parent="1" vertex="1">
          <mxGeometry x="100" y="135" width="40" height="20" as="geometry" />
        </mxCell>
        <mxCell id="_zqlpKHExtMpAy_HHPnF-12" style="edgeStyle=orthogonalEdgeStyle;rounded=0;orthogonalLoop=1;jettySize=auto;html=1;" parent="1" source="_zqlpKHExtMpAy_HHPnF-8" edge="1">
          <mxGeometry relative="1" as="geometry">
            <mxPoint x="200" y="420" as="targetPoint" />
          </mxGeometry>
        </mxCell>
        <mxCell id="_zqlpKHExtMpAy_HHPnF-8" value="密文：1d3a5s4d5a4" style="rounded=1;whiteSpace=wrap;html=1;" parent="1" vertex="1">
          <mxGeometry x="140" y="240" width="120" height="40" as="geometry" />
        </mxCell>
        <mxCell id="_zqlpKHExtMpAy_HHPnF-10" value="&lt;font color=&quot;#3333ff&quot;&gt;加密运算&lt;/font&gt;" style="text;html=1;strokeColor=none;fillColor=none;align=center;verticalAlign=middle;whiteSpace=wrap;rounded=0;" parent="1" vertex="1">
          <mxGeometry x="220" y="190" width="50" height="20" as="geometry" />
        </mxCell>
        <mxCell id="_zqlpKHExtMpAy_HHPnF-11" style="edgeStyle=orthogonalEdgeStyle;rounded=0;orthogonalLoop=1;jettySize=auto;html=1;exitX=0.5;exitY=1;exitDx=0;exitDy=0;" parent="1" source="_zqlpKHExtMpAy_HHPnF-10" target="_zqlpKHExtMpAy_HHPnF-10" edge="1">
          <mxGeometry relative="1" as="geometry" />
        </mxCell>
        <mxCell id="_zqlpKHExtMpAy_HHPnF-13" value="&lt;font color=&quot;#3333ff&quot;&gt;发报&lt;/font&gt;" style="text;html=1;strokeColor=none;fillColor=none;align=center;verticalAlign=middle;whiteSpace=wrap;rounded=0;" parent="1" vertex="1">
          <mxGeometry x="200" y="280" width="40" height="20" as="geometry" />
        </mxCell>
        <mxCell id="_zqlpKHExtMpAy_HHPnF-14" value="&lt;font color=&quot;#3333ff&quot;&gt;收报&lt;/font&gt;" style="text;html=1;strokeColor=none;fillColor=none;align=center;verticalAlign=middle;whiteSpace=wrap;rounded=0;" parent="1" vertex="1">
          <mxGeometry x="200" y="380" width="40" height="20" as="geometry" />
        </mxCell>
        <mxCell id="_zqlpKHExtMpAy_HHPnF-20" style="edgeStyle=orthogonalEdgeStyle;rounded=0;orthogonalLoop=1;jettySize=auto;html=1;entryX=0;entryY=0.75;entryDx=0;entryDy=0;" parent="1" source="_zqlpKHExtMpAy_HHPnF-17" target="_zqlpKHExtMpAy_HHPnF-22" edge="1">
          <mxGeometry relative="1" as="geometry">
            <mxPoint x="120" y="540" as="targetPoint" />
            <Array as="points">
              <mxPoint x="120" y="440" />
              <mxPoint x="120" y="543" />
              <mxPoint x="140" y="543" />
            </Array>
          </mxGeometry>
        </mxCell>
        <mxCell id="_zqlpKHExtMpAy_HHPnF-17" value="密文：1d3a5s4d5a4" style="rounded=1;whiteSpace=wrap;html=1;" parent="1" vertex="1">
          <mxGeometry x="140" y="420" width="120" height="40" as="geometry" />
        </mxCell>
        <mxCell id="_zqlpKHExtMpAy_HHPnF-18" value="密匙A" style="rounded=0;whiteSpace=wrap;html=1;" parent="1" vertex="1">
          <mxGeometry x="300" y="425" width="60" height="30" as="geometry" />
        </mxCell>
        <mxCell id="_zqlpKHExtMpAy_HHPnF-19" value="&lt;font style=&quot;font-size: 19px&quot; color=&quot;#ff3333&quot;&gt;+&lt;/font&gt;" style="text;html=1;strokeColor=none;fillColor=none;align=center;verticalAlign=middle;whiteSpace=wrap;rounded=0;" parent="1" vertex="1">
          <mxGeometry x="260" y="430" width="40" height="20" as="geometry" />
        </mxCell>
        <mxCell id="_zqlpKHExtMpAy_HHPnF-21" value="&lt;font color=&quot;#3333ff&quot;&gt;解密运算&lt;/font&gt;" style="text;html=1;strokeColor=none;fillColor=none;align=center;verticalAlign=middle;whiteSpace=wrap;rounded=0;" parent="1" vertex="1">
          <mxGeometry x="130" y="480" width="50" height="20" as="geometry" />
        </mxCell>
        <mxCell id="_zqlpKHExtMpAy_HHPnF-22" value="明文：1234" style="rounded=1;whiteSpace=wrap;html=1;" parent="1" vertex="1">
          <mxGeometry x="140" y="520" width="120" height="45" as="geometry" />
        </mxCell>
        <mxCell id="_zqlpKHExtMpAy_HHPnF-25" style="edgeStyle=orthogonalEdgeStyle;rounded=0;orthogonalLoop=1;jettySize=auto;html=1;entryX=1;entryY=0.5;entryDx=0;entryDy=0;" parent="1" source="_zqlpKHExtMpAy_HHPnF-26" target="_zqlpKHExtMpAy_HHPnF-30" edge="1">
          <mxGeometry relative="1" as="geometry">
            <Array as="points">
              <mxPoint x="620" y="145" />
              <mxPoint x="620" y="260" />
            </Array>
          </mxGeometry>
        </mxCell>
        <mxCell id="_zqlpKHExtMpAy_HHPnF-26" value="明文：1234" style="rounded=1;whiteSpace=wrap;html=1;" parent="1" vertex="1">
          <mxGeometry x="480" y="122.5" width="120" height="45" as="geometry" />
        </mxCell>
        <mxCell id="_zqlpKHExtMpAy_HHPnF-27" value="密匙A" style="rounded=0;whiteSpace=wrap;html=1;" parent="1" vertex="1">
          <mxGeometry x="380" y="130" width="60" height="30" as="geometry" />
        </mxCell>
        <mxCell id="_zqlpKHExtMpAy_HHPnF-28" value="&lt;font style=&quot;font-size: 19px&quot; color=&quot;#ff3333&quot;&gt;+&lt;/font&gt;" style="text;html=1;strokeColor=none;fillColor=none;align=center;verticalAlign=middle;whiteSpace=wrap;rounded=0;" parent="1" vertex="1">
          <mxGeometry x="440" y="135" width="40" height="20" as="geometry" />
        </mxCell>
        <mxCell id="_zqlpKHExtMpAy_HHPnF-29" style="edgeStyle=orthogonalEdgeStyle;rounded=0;orthogonalLoop=1;jettySize=auto;html=1;" parent="1" source="_zqlpKHExtMpAy_HHPnF-30" edge="1">
          <mxGeometry relative="1" as="geometry">
            <mxPoint x="540" y="420" as="targetPoint" />
          </mxGeometry>
        </mxCell>
        <mxCell id="_zqlpKHExtMpAy_HHPnF-30" value="密文：1d3a5s4d5a4" style="rounded=1;whiteSpace=wrap;html=1;" parent="1" vertex="1">
          <mxGeometry x="480" y="240" width="120" height="40" as="geometry" />
        </mxCell>
        <mxCell id="_zqlpKHExtMpAy_HHPnF-31" value="&lt;font color=&quot;#3333ff&quot;&gt;加密运算&lt;/font&gt;" style="text;html=1;strokeColor=none;fillColor=none;align=center;verticalAlign=middle;whiteSpace=wrap;rounded=0;" parent="1" vertex="1">
          <mxGeometry x="560" y="190" width="50" height="20" as="geometry" />
        </mxCell>
        <mxCell id="_zqlpKHExtMpAy_HHPnF-32" style="edgeStyle=orthogonalEdgeStyle;rounded=0;orthogonalLoop=1;jettySize=auto;html=1;exitX=0.5;exitY=1;exitDx=0;exitDy=0;" parent="1" source="_zqlpKHExtMpAy_HHPnF-31" target="_zqlpKHExtMpAy_HHPnF-31" edge="1">
          <mxGeometry relative="1" as="geometry" />
        </mxCell>
        <mxCell id="_zqlpKHExtMpAy_HHPnF-33" value="&lt;font color=&quot;#3333ff&quot;&gt;发报&lt;/font&gt;" style="text;html=1;strokeColor=none;fillColor=none;align=center;verticalAlign=middle;whiteSpace=wrap;rounded=0;" parent="1" vertex="1">
          <mxGeometry x="540" y="280" width="40" height="20" as="geometry" />
        </mxCell>
        <mxCell id="_zqlpKHExtMpAy_HHPnF-34" value="&lt;font color=&quot;#3333ff&quot;&gt;收报&lt;/font&gt;" style="text;html=1;strokeColor=none;fillColor=none;align=center;verticalAlign=middle;whiteSpace=wrap;rounded=0;" parent="1" vertex="1">
          <mxGeometry x="540" y="380" width="40" height="20" as="geometry" />
        </mxCell>
        <mxCell id="_zqlpKHExtMpAy_HHPnF-35" style="edgeStyle=orthogonalEdgeStyle;rounded=0;orthogonalLoop=1;jettySize=auto;html=1;entryX=0;entryY=0.75;entryDx=0;entryDy=0;" parent="1" source="_zqlpKHExtMpAy_HHPnF-36" target="_zqlpKHExtMpAy_HHPnF-40" edge="1">
          <mxGeometry relative="1" as="geometry">
            <mxPoint x="460" y="540" as="targetPoint" />
            <Array as="points">
              <mxPoint x="460" y="440" />
              <mxPoint x="460" y="543" />
              <mxPoint x="480" y="543" />
            </Array>
          </mxGeometry>
        </mxCell>
        <mxCell id="_zqlpKHExtMpAy_HHPnF-36" value="密文：1d3a5s4d5a4" style="rounded=1;whiteSpace=wrap;html=1;" parent="1" vertex="1">
          <mxGeometry x="480" y="420" width="120" height="40" as="geometry" />
        </mxCell>
        <mxCell id="_zqlpKHExtMpAy_HHPnF-37" value="密匙B" style="rounded=0;whiteSpace=wrap;html=1;" parent="1" vertex="1">
          <mxGeometry x="640" y="425" width="60" height="30" as="geometry" />
        </mxCell>
        <mxCell id="_zqlpKHExtMpAy_HHPnF-38" value="&lt;font style=&quot;font-size: 19px&quot; color=&quot;#ff3333&quot;&gt;+&lt;/font&gt;" style="text;html=1;strokeColor=none;fillColor=none;align=center;verticalAlign=middle;whiteSpace=wrap;rounded=0;" parent="1" vertex="1">
          <mxGeometry x="600" y="430" width="40" height="20" as="geometry" />
        </mxCell>
        <mxCell id="_zqlpKHExtMpAy_HHPnF-39" value="&lt;font color=&quot;#3333ff&quot;&gt;解密运算&lt;/font&gt;" style="text;html=1;strokeColor=none;fillColor=none;align=center;verticalAlign=middle;whiteSpace=wrap;rounded=0;" parent="1" vertex="1">
          <mxGeometry x="470" y="480" width="50" height="20" as="geometry" />
        </mxCell>
        <mxCell id="_zqlpKHExtMpAy_HHPnF-40" value="明文：1234" style="rounded=1;whiteSpace=wrap;html=1;" parent="1" vertex="1">
          <mxGeometry x="480" y="520" width="120" height="45" as="geometry" />
        </mxCell>
        <mxCell id="_zqlpKHExtMpAy_HHPnF-41" value="&lt;font style=&quot;font-size: 24px&quot; color=&quot;#ff3333&quot;&gt;对称式加密&lt;/font&gt;" style="text;html=1;strokeColor=none;fillColor=none;align=center;verticalAlign=middle;whiteSpace=wrap;rounded=0;" parent="1" vertex="1">
          <mxGeometry x="90" y="80" width="170" height="20" as="geometry" />
        </mxCell>
        <mxCell id="_zqlpKHExtMpAy_HHPnF-42" value="&lt;font style=&quot;font-size: 24px&quot; color=&quot;#ff3333&quot;&gt;非对称式加密&lt;/font&gt;" style="text;html=1;strokeColor=none;fillColor=none;align=center;verticalAlign=middle;whiteSpace=wrap;rounded=0;" parent="1" vertex="1">
          <mxGeometry x="455" y="80" width="170" height="20" as="geometry" />
        </mxCell>
        <mxCell id="_zqlpKHExtMpAy_HHPnF-43" value="&#xa;&#xa;&lt;span style=&quot;color: rgb(0, 0, 0); font-family: helvetica; font-size: 12px; font-style: normal; font-weight: 400; letter-spacing: normal; text-align: center; text-indent: 0px; text-transform: none; word-spacing: 0px; background-color: rgb(248, 249, 250); display: inline; float: none;&quot;&gt;密匙A即我们所说的公钥&lt;/span&gt;&#xa;&#xa;" style="text;html=1;strokeColor=none;fillColor=none;align=center;verticalAlign=middle;whiteSpace=wrap;rounded=0;" parent="1" vertex="1">
          <mxGeometry x="370" y="180" width="80" height="20" as="geometry" />
        </mxCell>
        <mxCell id="_zqlpKHExtMpAy_HHPnF-44" value="&lt;span style=&quot;color: rgb(0 , 0 , 0) ; font-family: &amp;#34;helvetica&amp;#34; ; font-size: 12px ; font-style: normal ; font-weight: 400 ; letter-spacing: normal ; text-align: center ; text-indent: 0px ; text-transform: none ; word-spacing: 0px ; background-color: rgb(248 , 249 , 250) ; display: inline ; float: none&quot;&gt;密匙B即我们所说的私钥&lt;/span&gt;" style="text;whiteSpace=wrap;html=1;" parent="1" vertex="1">
          <mxGeometry x="625" y="370" width="80" height="40" as="geometry" />
        </mxCell>
        <mxCell id="_zqlpKHExtMpAy_HHPnF-45" value="&lt;font color=&quot;#ff3333&quot;&gt;非对称加密加密解密采用不同的密匙&lt;/font&gt;" style="whiteSpace=wrap;html=1;shape=mxgraph.basic.roundRectCallout;dx=30;dy=15;size=5;boundedLbl=1;" parent="1" vertex="1">
          <mxGeometry x="705" y="365" width="100" height="60" as="geometry" />
        </mxCell>
        <mxCell id="_zqlpKHExtMpAy_HHPnF-48" value="&lt;font color=&quot;#ff3333&quot;&gt;对称加密加密解密采相同的密匙&lt;/font&gt;" style="whiteSpace=wrap;html=1;shape=mxgraph.basic.roundRectCallout;dx=30;dy=15;size=5;boundedLbl=1;" parent="1" vertex="1">
          <mxGeometry x="330" y="360" width="100" height="60" as="geometry" />
        </mxCell>
      </root>
    </mxGraphModel>
  </diagram>
</mxfile>
